<svg width="210" height="37" viewBox="0 0 210 37" fill="none" xmlns="http://www.w3.org/2000/svg">
    <path d="M23.3646 36.9538C20.0731 34.0233 18 29.7538 18 25.0001C18 16.1635 25.1635 9.00006 34 9.00006C39.7182 9.00006 44.7358 11.9997 47.5651 16.5114C44.6614 13.1946 40.3961 11.1001 35.6415 11.1001C26.8925 11.1001 19.8 18.1925 19.8 26.9416C19.8 30.7393 21.1364 34.2249 23.3646 36.9538ZM37.6619 35.819C35.5502 35.2339 34 33.298 34 31.0001C34 28.2386 36.2386 26.0001 39 26.0001C40.7422 26.0001 42.2763 26.8911 43.1714 28.2423C42.3477 27.5306 41.2741 27.1001 40.1001 27.1001C37.5043 27.1001 35.4001 29.2043 35.4001 31.8001C35.4001 33.5031 36.3058 34.9945 37.6619 35.819ZM56.43 23.2731C56.213 23.7021 55.84 23.9231 55.31 23.9361L53.378 23.9161C52.793 23.9021 52.636 23.6221 52.908 23.0721L59.376 10.7891C59.696 10.1991 60.449 9.90506 61.633 9.90506C62.818 9.90506 63.553 10.1851 63.838 10.7491L68.802 20.2471L73.776 10.7891C74.076 10.1991 74.817 9.90506 76.002 9.90506C77.186 9.90506 77.928 10.1851 78.228 10.7491L84.613 23.0721C84.912 23.6341 84.735 23.9221 84.079 23.9361H82.219C81.704 23.9221 81.338 23.7021 81.123 23.2731L76.629 14.2271C76.211 13.1551 75.796 13.1551 75.385 14.2271L71.06 22.8601C70.447 23.5771 69.844 23.9351 69.252 23.9351H68.102C67.559 23.9351 67.029 23.5901 66.515 22.9011L62.23 14.2261C61.818 13.2411 61.411 13.2411 61.007 14.2261L56.43 23.2721V23.2731ZM91.248 18.3081V20.0871C91.248 20.7701 91.608 21.1121 92.324 21.1121H104.196C105.22 21.1121 105.731 21.5771 105.731 22.5101C105.731 23.4471 105.181 23.9161 104.081 23.9161H89.566C88.263 23.9161 87.612 23.3731 87.612 22.2881V11.5531C87.612 10.4541 88.232 9.90406 89.472 9.90406H104.196C105.22 9.89106 105.731 10.3501 105.731 11.2821C105.731 12.2331 105.227 12.6951 104.217 12.6681H92.324C91.607 12.7081 91.248 13.0381 91.248 13.6541V15.5341H97.183C98.431 15.5601 99.054 16.0251 99.054 16.9311C99.054 17.8751 98.41 18.3351 97.121 18.3081H91.248ZM117.258 18.3081C115.976 18.3351 115.335 17.8751 115.335 16.9311C115.335 16.0251 115.948 15.5611 117.175 15.5331H121.009C122.054 15.5331 122.705 15.3191 122.963 14.8901C123.019 14.7961 123.065 14.6871 123.099 14.5631C123.134 14.4401 123.152 14.2931 123.152 14.1261C123.152 13.7701 123.076 13.5111 122.926 13.3471C122.776 13.1831 122.466 13.0441 121.993 12.9301C121.647 12.8547 121.296 12.8046 120.943 12.7801C120.464 12.7428 119.985 12.7192 119.505 12.7091H113.485C112.643 12.7091 112.222 13.0501 112.222 13.7341V22.5101C112.27 23.4601 111.671 23.9301 110.424 23.9161C109.198 23.9161 108.584 23.4471 108.584 22.5101V11.6741C108.584 10.5071 109.264 9.91806 110.622 9.90406H119.442C122.569 9.91806 124.726 10.5581 125.911 11.8241C126.481 12.4811 126.767 13.2481 126.767 14.1261C126.656 15.7741 125.778 16.7561 124.134 17.0711C125.764 17.3591 126.621 18.2471 126.705 19.7341V22.5101C126.705 23.4471 126.092 23.9161 124.865 23.9161C123.653 23.9161 123.061 23.4471 123.089 22.5101V19.7151C123.13 19.5795 123.134 19.4354 123.099 19.2981C123.069 19.1834 123.023 19.0735 122.963 18.9711C122.705 18.5281 122.053 18.3081 121.009 18.3081H117.258ZM147.72 22.5101C147.72 23.4471 147.208 23.9231 146.183 23.9361H138.702C135.978 23.9361 133.772 23.2961 132.087 22.0161C130.429 20.7431 129.599 19.0481 129.599 16.9311C129.599 14.8411 130.429 13.1581 132.087 11.8851C133.801 10.5911 135.985 9.93106 138.639 9.90506H146.183C147.208 9.89106 147.72 10.3501 147.72 11.2821C147.72 12.2321 147.214 12.6951 146.205 12.6681L145.598 12.7081H138.638C137.058 12.7361 135.758 13.1411 134.741 13.9251C133.737 14.7361 133.236 15.7371 133.236 16.9311C133.236 18.7131 134.173 19.9561 136.047 20.6601C136.87 20.9897 137.753 21.1436 138.639 21.1121H146.183C147.208 21.1121 147.72 21.5781 147.72 22.5101ZM168.713 11.6931V16.9311C168.755 19.0341 167.936 20.7301 166.257 22.0161C164.599 23.2961 162.404 23.9361 159.675 23.9361C156.95 23.9361 154.745 23.2961 153.059 22.0161C151.401 20.7441 150.572 19.0481 150.572 16.9311V11.3211C150.572 10.4171 151.185 9.95106 152.412 9.92506C153.658 9.91106 154.258 10.3771 154.208 11.3221V16.9311C154.208 18.7131 155.145 19.9561 157.019 20.6591C157.96 20.9751 158.845 21.1321 159.675 21.1321C161.792 21.1321 163.355 20.5021 164.366 19.2421C164.61 18.9211 164.792 18.5651 164.914 18.1771C165.039 17.7673 165.087 17.3382 165.056 16.9111V11.3211C165.014 10.3771 165.613 9.91106 166.853 9.92506C168.079 9.95106 168.693 10.4171 168.693 11.3221L168.713 11.6931ZM180.26 18.3081C178.978 18.3351 178.337 17.8751 178.337 16.9311C178.337 16.0251 178.95 15.5611 180.177 15.5331H184.011C185.056 15.5331 185.708 15.3191 185.965 14.8901C186.021 14.7961 186.067 14.6871 186.101 14.5631C186.136 14.4401 186.154 14.2931 186.154 14.1261C186.154 13.7701 186.079 13.5111 185.929 13.3471C185.779 13.1831 185.468 13.0441 184.994 12.9301C184.648 12.8547 184.297 12.8046 183.944 12.7801C183.466 12.7429 182.987 12.7192 182.507 12.7091H176.487C175.644 12.7091 175.224 13.0501 175.224 13.7341V22.5101C175.272 23.4601 174.673 23.9301 173.426 23.9161C172.2 23.9161 171.586 23.4471 171.586 22.5101V11.6741C171.586 10.5071 172.266 9.91806 173.624 9.90406H182.444C185.572 9.91806 187.728 10.5581 188.913 11.8241C189.483 12.4811 189.77 13.2481 189.77 14.1261C189.658 15.7741 188.78 16.7561 187.136 17.0711C188.766 17.3591 189.623 18.2471 189.707 19.7341V22.5101C189.707 23.4471 189.093 23.9161 187.867 23.9161C186.655 23.9161 186.064 23.4471 186.092 22.5101V19.7151C186.133 19.5795 186.136 19.4353 186.101 19.2981C186.071 19.1834 186.025 19.0734 185.965 18.9711C185.708 18.5281 185.056 18.3081 184.011 18.3081H180.261H180.26ZM202.048 22.5401C202.062 23.4571 201.434 23.9161 200.168 23.9161C198.906 23.9161 198.318 23.4461 198.401 22.5091V17.0911L198.212 16.9111C198.144 16.8431 198.037 16.7381 197.894 16.5941C197.695 16.3938 197.495 16.1944 197.294 15.9961C196.436 15.1477 195.589 14.288 194.754 13.4171C194.021 12.6595 193.29 11.9009 192.559 11.1411C191.974 10.4641 192.145 10.0591 193.071 9.92406H194.231C195.227 9.89706 196.025 10.1991 196.624 10.8291L199.686 14.0261C200.104 14.3541 200.526 14.3541 200.951 14.0261L204.128 10.7691C204.552 10.1931 205.253 9.90406 206.228 9.90406H207.827C209.032 9.93106 209.335 10.2191 208.736 10.7691L202.048 17.0911V22.5391V22.5401Z" fill="white"/>
    <path d="M6.31266 4.16951C5.17506 5.71203 29.3147 24.4926 34.8908 28.1507C34.8016 28.2791 34.7183 28.4119 34.6412 28.5487C30.9891 26.7901 26.5707 23.8487 20.25 19.4801C7.76104 10.8481 -1.24196 2.33207 0.140037 0.462073C1.49242 -1.36786 12.2916 3.84253 24.458 12.1556C24.4276 12.1782 24.3973 12.2009 24.3671 12.2237C20.7592 10.2393 7.19674 2.97365 6.31266 4.16951ZM60.439 32.8491C60.439 33.3201 60.261 33.6951 59.904 33.9741C59.547 34.2521 59.037 34.3921 58.374 34.3921H53.517V27.6521H58.347C59.742 27.6521 60.439 28.1541 60.439 29.1591V32.8491ZM59.068 32.5261V29.4291C59.068 28.8901 58.685 28.6211 57.919 28.6211H54.909V33.4151H57.919C58.685 33.4151 59.068 33.1191 59.068 32.5261ZM73.944 31.5161H69.402V32.6541C69.402 33.1571 69.807 33.4081 70.619 33.4081H74.217V34.3921H70.241C69.555 34.3921 69.021 34.2771 68.639 34.0481C68.219 33.7921 68.009 33.4311 68.009 32.9641V29.1731C68.009 28.7071 68.195 28.3401 68.569 28.0731C68.942 27.8051 69.457 27.6721 70.116 27.6721H74.217V28.6551H70.605C69.803 28.6551 69.402 28.9021 69.402 29.3951V30.5471H73.944V31.5161ZM89.543 27.6581L86.372 33.8731C86.162 34.2811 85.832 34.4861 85.384 34.4861C84.927 34.4861 84.594 34.2811 84.384 33.8731L81.212 27.6581H82.689L85.371 33.1121L88.079 27.6581H89.543ZM102.165 31.5161H97.622V32.6541C97.622 33.1571 98.028 33.4081 98.84 33.4081H102.438V34.3921H98.463C97.776 34.3921 97.242 34.2771 96.859 34.0481C96.439 33.7921 96.229 33.4311 96.229 32.9641V29.1731C96.229 28.7071 96.415 28.3401 96.789 28.0731C97.163 27.8051 97.679 27.6721 98.336 27.6721H102.438V28.6551H98.826C98.024 28.6551 97.622 28.9021 97.622 29.3951V30.5471H102.165V31.5161ZM116.538 34.3921H112.835C112.022 34.3921 111.4 34.2721 110.965 34.0311C110.532 33.7911 110.315 33.3721 110.315 32.7751V27.6521H111.708V32.5391C111.708 32.8851 111.822 33.1251 112.05 33.2591C112.223 33.3641 112.592 33.4151 113.157 33.4151H116.537L116.538 34.3921ZM130.134 32.8631C130.134 33.8821 129.371 34.3911 127.844 34.3911H125.737C125 34.3911 124.449 34.2791 124.086 34.0551C123.647 33.7851 123.428 33.3931 123.428 32.8751V29.2001C123.428 28.6881 123.651 28.2911 124.099 28.0081C124.454 27.7751 125 27.6581 125.737 27.6581H127.858C129.375 27.6581 130.134 28.1721 130.134 29.2001V32.8631ZM128.762 32.6201V29.4821C128.762 29.1681 128.666 28.9501 128.475 28.8261C128.283 28.7021 127.969 28.6421 127.529 28.6421H126.066C125.618 28.6421 125.299 28.7021 125.108 28.8261C124.916 28.9501 124.821 29.1681 124.821 29.4821V32.5931C124.821 32.8721 124.926 33.0851 125.136 33.2331C125.308 33.3501 125.618 33.4081 126.066 33.4081H127.529C127.959 33.4081 128.271 33.3501 128.468 33.2331C128.664 33.1171 128.762 32.9131 128.762 32.6201ZM144.584 30.4121C144.584 30.8601 144.399 31.2141 144.031 31.4721C143.662 31.7311 143.158 31.8601 142.519 31.8601H139.109V34.3921H137.717V27.6381H142.449C143.059 27.6381 143.558 27.7481 143.939 27.9681C144.35 28.2101 144.56 28.5421 144.57 28.9641C144.579 29.4181 144.584 29.9001 144.584 30.4121ZM143.19 30.0951V29.2941C143.19 28.8411 142.82 28.6141 142.078 28.6141H139.11V30.8571H142.042C142.808 30.8571 143.19 30.6021 143.19 30.0951ZM161.666 34.4251H160.336V29.1251L157.879 33.8451C157.641 34.3081 157.307 34.5401 156.878 34.5401C156.621 34.5401 156.411 34.4721 156.248 34.3381C156.12 34.2053 156.014 34.0531 155.933 33.8871L153.42 29.1251V34.4251H152.09V28.5601C152.09 28.3041 152.195 28.0921 152.405 27.9241C152.615 27.7551 152.907 27.6721 153.28 27.6721C153.845 27.6721 154.232 27.8811 154.442 28.2971L156.864 33.0711L159.328 28.2911C159.548 27.8681 159.93 27.6581 160.476 27.6581C160.858 27.6581 161.152 27.7441 161.357 27.9171C161.557 28.0783 161.671 28.3232 161.666 28.5801V34.4251ZM175.17 31.5161H170.627V32.6541C170.627 33.1571 171.034 33.4081 171.845 33.4081H175.443V34.3921H171.467C170.781 34.3921 170.247 34.2771 169.864 34.0481C169.444 33.7921 169.234 33.4311 169.234 32.9641V29.1731C169.234 28.7071 169.421 28.3401 169.794 28.0731C170.168 27.8051 170.684 27.6721 171.341 27.6721H175.443V28.6551H171.831C171.029 28.6551 170.627 28.9021 170.627 29.3951V30.5471H175.17V31.5161ZM190.215 33.5831C190.22 33.8267 190.115 34.0595 189.928 34.2161C189.718 34.4051 189.435 34.4991 189.08 34.4991C188.749 34.4991 188.493 34.4281 188.31 34.2841C188.23 34.2211 188.09 34.0381 187.89 33.7381L184.65 28.9911V34.4051H183.32V28.6401C183.32 27.9851 183.697 27.6571 184.454 27.6571C184.799 27.6571 185.06 27.7271 185.237 27.8671C185.335 27.9411 185.48 28.1241 185.671 28.4111L188.884 33.1511V27.7201H190.214V33.5841L190.215 33.5831ZM203.251 28.6211H200.871V34.3911H199.478V28.6211H197.112V27.6381H203.252L203.251 28.6211Z" fill="white"/>
</svg>
